<?xml version="1.0" encoding="utf-8"?>
<!-- Generator: Adobe Illustrator 26.3.1, SVG Export Plug-In . SVG Version: 6.00 Build 0)  -->
<svg version="1.1" id="Camada_1" xmlns="http://www.w3.org/2000/svg" xmlns:xlink="http://www.w3.org/1999/xlink" x="0px" y="0px"
	 viewBox="0 0 595.3 595.3" style="enable-background:new 0 0 595.3 595.3;" xml:space="preserve">
<style type="text/css">
	.st0{fill:none;stroke:#29235C;stroke-width:5;stroke-linecap:round;stroke-linejoin:round;stroke-miterlimit:10;}
	.st1{fill:#A42951;stroke:#FFFFFF;stroke-width:6;stroke-linecap:round;stroke-linejoin:round;stroke-miterlimit:10;}
	.st2{fill:#FFFFFF;stroke:#FFFFFF;stroke-miterlimit:10;}
	.st3{fill:#A42951;stroke:#A42951;stroke-width:3;stroke-linecap:round;stroke-linejoin:round;stroke-miterlimit:10;}
	.st4{fill:#29235C;stroke:#29235C;stroke-width:5;stroke-linecap:round;stroke-linejoin:round;stroke-miterlimit:10;}
</style>
<line class="st0" x1="412" y1="198.1" x2="320.6" y2="198.1"/>
<line class="st0" x1="412" y1="216.3" x2="320.6" y2="216.3"/>
<path class="st1" d="M282.7,119.7c0,0-62.7,0.3,0,82.4C345.4,120,282.7,119.7,282.7,119.7z"/>
<ellipse class="st2" cx="281.7" cy="142.8" rx="10.1" ry="9.3"/>
<path class="st3" d="M259.2,169.8c0,0,21.7,37.1,23.9,36.5c0,0,23.3-32.9,24.2-37.9l-0.5,52.8l-45.4-0.6l-2.1-50.3V169.8z"/>
<path class="st4" d="M253.2,182.4c0,0-24.2,22.8,0,52.5l152,1v42l-162.7-2C242.5,276,233.5,185.4,253.2,182.4z"/>
<polyline class="st0" points="431.4,188.3 431.4,181.6 313,181.6 "/>
<polygon class="st4" points="255,232.6 436,231.3 433.2,305.3 240.4,305.3 240.4,235.4 "/>
</svg>
