<?xml version="1.0" encoding="utf-8"?>
<!-- Generator: Adobe Illustrator 26.3.1, SVG Export Plug-In . SVG Version: 6.00 Build 0)  -->
<svg version="1.1" id="Camada_1" xmlns="http://www.w3.org/2000/svg" xmlns:xlink="http://www.w3.org/1999/xlink" x="0px" y="0px"
	 viewBox="0 0 1400 1400" style="enable-background:new 0 0 1400 1400;" xml:space="preserve">
<style type="text/css">
	.st0{fill:#FFFFFF;stroke:#FFFFFF;stroke-linecap:round;stroke-linejoin:round;stroke-miterlimit:10;}
	.st1{fill:#A42951;stroke:#FFFFFF;stroke-width:6;stroke-linecap:round;stroke-linejoin:round;stroke-miterlimit:10;}
	.st2{fill:none;stroke:#29235C;stroke-width:5;stroke-linecap:round;stroke-linejoin:round;stroke-miterlimit:10;}
	.st3{fill:#A42951;stroke:#FFFFFF;stroke-width:29;stroke-linecap:round;stroke-linejoin:round;stroke-miterlimit:10;}
	.st4{fill:#FFFFFF;stroke:#FFFFFF;stroke-miterlimit:10;}
	.st5{fill:#A42951;stroke:#A42951;stroke-width:3;stroke-linecap:round;stroke-linejoin:round;stroke-miterlimit:10;}
	.st6{fill:#29235C;stroke:#29235C;stroke-width:5;stroke-linecap:round;stroke-linejoin:round;stroke-miterlimit:10;}
</style>
<path class="st0" d="M571.5,385.1v66.3h653.7c0,0,31.3,5.8,33.1,41.5s-8.3,209.8-8.3,209.8s41.4,15.6,39.6,54.3l-16.6,371.9
	l-1.8,28.5c0,0,11,41.4-46,39.6c-57.1-1.8-1021.8,0.1-1021.8,0.1l-23.9-7.4c0,0-20.3-9.2-20.3-62.6c0-53.4,0-478.7,0-478.7
	S170.5,444,269.8,456.9v-99.4L571.5,385.1z"/>
<line class="st1" x1="554.6" y1="437" x2="558.6" y2="343.2"/>
<line class="st1" x1="283.5" y1="455.1" x2="283.5" y2="361.2"/>
<line class="st2" x1="1120" y1="577.5" x2="625.9" y2="577.5"/>
<line class="st2" x1="1120" y1="676" x2="625.9" y2="676"/>
<path class="st3" d="M424.7,153.9c0,0-339.4,1.5,0,445.4C764,155.4,424.7,153.9,424.7,153.9z"/>
<ellipse class="st4" cx="415.6" cy="278.6" rx="54.6" ry="50.5"/>
<path class="st5" d="M293.6,424.7c0,0,117.6,200.7,129.2,197.5c0,0,125.8-178.1,130.8-204.8l-2.8,285.4l-245.8-3.5L293.6,427V424.7z
	"/>
<path class="st6" d="M261.4,492.9c0,0-130.7,123.4,0,284.2l822,5.4v227l-880.1-10.8C203.3,998.7,154.6,508.7,261.4,492.9z"/>
<polyline class="st2" points="1225.2,524.9 1225.2,488.2 584.5,488.2 "/>
<polygon class="st6" points="271.3,764.4 1250.1,757 1234.7,1157.4 192.2,1157.4 192.2,779.2 "/>
</svg>
